<svg xmlns="http://www.w3.org/2000/svg" xmlns:xlink="http://www.w3.org/1999/xlink" width="500" zoomAndPan="magnify" viewBox="0 0 375 374.999991" height="500" preserveAspectRatio="xMidYMid meet" version="1.2"><defs><clipPath id="6a03592d31"><path d="M 112.5 121 L 262.5 121 L 262.5 254.007812 L 112.5 254.007812 Z M 112.5 121 "/></clipPath><clipPath id="bc9974d458"><path d="M 112.5 121 L 262.5 121 L 262.5 254.007812 L 112.5 254.007812 Z M 112.5 121 "/></clipPath></defs><g id="4704274df3"><g clip-rule="nonzero" clip-path="url(#6a03592d31)"><path style=" stroke:none;fill-rule:nonzero;fill:#00bf63;fill-opacity:1;" d="M 249.09375 162.222656 C 249.070312 162.222656 249.046875 162.222656 249.023438 162.226562 C 248.527344 162.230469 248.035156 162.28125 247.550781 162.375 C 238.308594 138.210938 214.882812 121.003906 187.507812 121.003906 C 160.132812 121.003906 136.703125 138.210938 127.460938 162.375 C 126.976562 162.28125 126.488281 162.230469 125.988281 162.226562 C 125.964844 162.222656 125.941406 162.222656 125.917969 162.222656 C 118.394531 162.222656 112.5 172.34375 112.5 185.265625 C 112.5 198.1875 118.394531 208.308594 125.917969 208.308594 C 125.9375 208.308594 125.957031 208.308594 125.972656 208.308594 C 126.472656 208.304688 126.964844 208.25 127.449219 208.160156 C 127.453125 208.175781 128.730469 207.714844 129.953125 207.265625 C 131.144531 206.832031 131.753906 205.523438 131.347656 204.320312 C 129.269531 198.203125 128.214844 191.800781 128.214844 185.265625 C 128.214844 152.570312 154.8125 125.976562 187.507812 125.976562 C 220.199219 125.976562 246.796875 152.570312 246.796875 185.265625 C 246.796875 193.566406 245.121094 201.570312 241.8125 209.089844 C 241.800781 209.121094 241.785156 209.152344 241.773438 209.183594 C 241.605469 209.558594 241.433594 209.9375 241.253906 210.3125 C 232.652344 228.625 214.949219 241.847656 194.007812 244.125 C 192.910156 241.636719 190.421875 239.902344 187.523438 239.914062 C 183.835938 239.933594 180.722656 242.890625 180.523438 246.574219 C 180.304688 250.640625 183.539062 254.007812 187.558594 254.007812 C 190.707031 254.007812 193.371094 251.945312 194.277344 249.097656 C 216.957031 246.730469 236.167969 232.519531 245.59375 212.773438 L 245.597656 212.777344 C 245.660156 212.640625 245.722656 212.5 245.785156 212.363281 C 245.960938 211.984375 246.136719 211.605469 246.304688 211.222656 C 246.332031 211.164062 246.359375 211.101562 246.386719 211.042969 C 246.804688 210.09375 247.199219 209.132812 247.574219 208.160156 C 248.054688 208.25 248.542969 208.304688 249.039062 208.308594 C 249.058594 208.308594 249.078125 208.308594 249.09375 208.308594 C 256.621094 208.308594 262.515625 198.1875 262.515625 185.265625 C 262.515625 172.34375 256.621094 162.222656 249.09375 162.222656 "/></g><path style=" stroke:none;fill-rule:nonzero;fill:#00bf63;fill-opacity:1;" d="M 166.242188 225.355469 C 172.804688 228.828125 180.316406 230.75 188.289062 230.617188 C 212.84375 230.207031 232.789062 210.105469 233.011719 185.546875 C 233.246094 160.21875 212.785156 139.617188 187.515625 139.617188 C 162.429688 139.617188 142.117188 159.839844 142.007812 184.921875 C 141.96875 194.714844 145.019531 203.792969 150.246094 211.230469 C 150.765625 211.976562 150.84375 212.941406 150.445312 213.757812 L 142.101562 230.96875 C 141.0625 233.109375 143.308594 235.355469 145.449219 234.316406 L 163.996094 225.324219 C 164.707031 224.976562 165.542969 224.984375 166.242188 225.355469 "/><g clip-rule="nonzero" clip-path="url(#bc9974d458)"><path style=" stroke:none;fill-rule:nonzero;fill:#00bf63;fill-opacity:1;" d="M 249.09375 162.222656 C 249.070312 162.222656 249.046875 162.222656 249.023438 162.226562 C 248.527344 162.230469 248.035156 162.28125 247.550781 162.375 C 238.308594 138.210938 214.882812 121.003906 187.507812 121.003906 C 160.132812 121.003906 136.703125 138.210938 127.460938 162.375 C 126.976562 162.28125 126.488281 162.230469 125.988281 162.226562 C 125.964844 162.222656 125.941406 162.222656 125.917969 162.222656 C 118.394531 162.222656 112.5 172.34375 112.5 185.265625 C 112.5 198.1875 118.394531 208.308594 125.917969 208.308594 C 125.9375 208.308594 125.957031 208.308594 125.972656 208.308594 C 126.472656 208.304688 126.964844 208.25 127.449219 208.160156 C 127.453125 208.175781 128.730469 207.714844 129.953125 207.265625 C 131.144531 206.832031 131.753906 205.523438 131.347656 204.320312 C 129.269531 198.203125 128.214844 191.800781 128.214844 185.265625 C 128.214844 152.570312 154.8125 125.976562 187.507812 125.976562 C 220.199219 125.976562 246.796875 152.570312 246.796875 185.265625 C 246.796875 193.566406 245.121094 201.570312 241.8125 209.089844 C 241.800781 209.121094 241.785156 209.152344 241.773438 209.183594 C 241.605469 209.558594 241.433594 209.9375 241.253906 210.3125 C 232.652344 228.625 214.949219 241.847656 194.007812 244.125 C 192.910156 241.636719 190.421875 239.902344 187.523438 239.914062 C 183.835938 239.933594 180.722656 242.890625 180.523438 246.574219 C 180.304688 250.640625 183.539062 254.007812 187.558594 254.007812 C 190.707031 254.007812 193.371094 251.945312 194.277344 249.097656 C 216.957031 246.730469 236.167969 232.519531 245.59375 212.773438 L 245.597656 212.777344 C 245.660156 212.640625 245.722656 212.5 245.785156 212.363281 C 245.960938 211.984375 246.136719 211.605469 246.304688 211.222656 C 246.332031 211.164062 246.359375 211.101562 246.386719 211.042969 C 246.804688 210.09375 247.199219 209.132812 247.574219 208.160156 C 248.054688 208.25 248.542969 208.304688 249.039062 208.308594 C 249.058594 208.308594 249.078125 208.308594 249.09375 208.308594 C 256.621094 208.308594 262.515625 198.1875 262.515625 185.265625 C 262.515625 172.34375 256.621094 162.222656 249.09375 162.222656 "/></g><path style=" stroke:none;fill-rule:nonzero;fill:#00bf63;fill-opacity:1;" d="M 166.242188 225.355469 C 172.804688 228.828125 180.316406 230.75 188.289062 230.617188 C 212.84375 230.207031 232.789062 210.105469 233.011719 185.546875 C 233.246094 160.21875 212.785156 139.617188 187.515625 139.617188 C 162.429688 139.617188 142.117188 159.839844 142.007812 184.921875 C 141.96875 194.714844 145.019531 203.792969 150.246094 211.230469 C 150.765625 211.976562 150.84375 212.941406 150.445312 213.757812 L 142.101562 230.96875 C 141.0625 233.109375 143.308594 235.355469 145.449219 234.316406 L 163.996094 225.324219 C 164.707031 224.976562 165.542969 224.984375 166.242188 225.355469 "/></g></svg>